<svg height="80pt" viewBox="0 0 512 512" width="80pt" xmlns="http://www.w3.org/2000/svg"><path d="m82 427.929688c0 4.070312 3.277344 7.367187 7.316406 7.367187h123.914063c17.960937 0 35.628906 4.59375 51.339843 13.351563 15.714844 8.757812 33.382813 13.351562 51.34375 13.351562h114.085938v-17.175781c0-29.175781-23.492188-52.824219-52.472656-52.824219h-259.835938c-19.710937 0-35.691406 16.085938-35.691406 35.929688zm0 0" fill="#e89776"/><path d="m474.5 392h-437c-16.570312 0-30-13.429688-30-30v-6c0-4.417969 3.582031-8 8-8h481c4.417969 0 8 3.582031 8 8v6c0 16.570312-13.429688 30-30 30zm0 0" fill="#d8d5ed"/><path d="m496.5 348h-30c4.417969 0 8 3.582031 8 8v6c0 16.570312-13.429688 30-30 30h30c16.570312 0 30-13.429688 30-30v-6c0-4.417969-3.582031-8-8-8zm0 0" fill="#bebade"/><path d="m451 348h-390c-11.046875 0-20-8.953125-20-20v-260c0-11.046875 8.953125-20 20-20h390c11.046875 0 20 8.953125 20 20v260c0 11.046875-8.953125 20-20 20zm0 0" fill="#50536e"/><path d="m451 48h-30c11.046875 0 20 8.953125 20 20v260c0 11.046875-8.953125 20-20 20h30c11.046875 0 20-8.953125 20-20v-260c0-11.046875-8.953125-20-20-20zm0 0" fill="#484b63"/><path d="m441 78v240h-370v-240zm0 0" fill="#b5fcff"/><path d="m411 78h30v240h-30zm0 0" fill="#71f6fc"/><path d="m392 190c0 6.015625-6.296875 11.125-7.78125 16.675781-1.53125 5.738281 1.320312 13.304688-1.589844 18.332031-2.949218 5.097657-10.953125 6.390626-15.089844 10.527344-4.140624 4.140625-5.433593 12.144532-10.53125 15.09375-5.027343 2.910156-12.59375.058594-18.332031 1.589844-5.550781 1.484375-10.660156 7.78125-16.675781 7.78125s-11.125-6.296875-16.675781-7.777344c-5.742188-1.535156-13.304688 1.316406-18.332031-1.589844-5.097657-2.953124-6.390626-10.957031-10.53125-15.09375-4.136719-4.140624-12.140626-5.433593-15.089844-10.53125-2.910156-5.027343-.058594-12.59375-1.589844-18.332031-1.484375-5.550781-7.78125-10.660156-7.78125-16.675781s6.296875-11.125 7.777344-16.675781c1.535156-5.738281-1.316406-13.304688 1.589844-18.332031 2.953124-5.097657 10.957031-6.390626 15.09375-10.527344 4.140624-4.140625 5.433593-12.144532 10.53125-15.09375 5.027343-2.910156 12.589843-.058594 18.332031-1.589844 5.550781-1.484375 10.660156-7.78125 16.675781-7.78125s11.125 6.296875 16.671875 7.777344c5.742187 1.535156 13.308594-1.316406 18.332031 1.589844 5.101563 2.953124 6.394532 10.957031 10.53125 15.09375 4.140625 4.140624 12.144532 5.433593 15.09375 10.53125 2.910156 5.027343.058594 12.59375 1.589844 18.332031 1.484375 5.550781 7.78125 10.660156 7.78125 16.675781zm0 0" fill="#ff2c5c"/><path d="m339.523438 374.96875h-110.089844c-15.859375 0-28.714844 12.855469-28.714844 28.714844 0 2.957031 2.351562 5.375 5.308594 5.457031 17.21875.46875 71.292968 2.640625 85.941406 11.652344 17.503906 10.765625 46.558594 41.207031 67.03125 41.207031h71s19.5-87.03125-90.476562-87.03125zm0 0" fill="#ebad88"/><path d="m339.523438 374.96875h-30c109.976562 0 90.476562 87.03125 90.476562 87.03125h30s19.5-87.03125-90.476562-87.03125zm0 0" fill="#e89776"/><path d="m482.734375 504.5h-138.269531l-23.136719-42.5 122.339844-23zm0 0" fill="#ff2c5c"/><path d="m443.667969 439-26.976563 5.070312 36.039063 60.429688h30zm0 0" fill="#e62753"/><path d="m64.015625 11.515625 9.820313 19.730469c1.058593 2.125 3.105468 3.601562 5.472656 3.941406l21.960937 3.164062c5.960938.859376 8.339844 8.117188 4.027344 12.285157l-15.890625 15.359375c-1.714844 1.65625-2.496094 4.039062-2.089844 6.375l3.75 21.6875c1.019532 5.882812-5.210937 10.371094-10.542968 7.59375l-19.644532-10.238282c-2.117187-1.105468-4.644531-1.105468-6.761718 0l-19.640626 10.238282c-5.332031 2.777344-11.5625-1.710938-10.542968-7.59375l3.75-21.6875c.40625-2.335938-.375-4.71875-2.089844-6.375l-15.890625-15.359375c-4.3125-4.167969-1.933594-11.425781 4.027344-12.285157l21.960937-3.164062c2.367188-.339844 4.414063-1.816406 5.472656-3.941406l9.820313-19.730469c2.664063-5.355469 10.367187-5.355469 13.03125 0zm0 0" fill="#ffd659"/><path d="m89.398438 65.996094c-1.710938 1.652344-2.484376 4.039062-2.085938 6.375l3.75 21.6875c1.023438 5.886718-5.214844 10.375-10.539062 7.601562l-2.835938-1.488281c-1.386719-38.386719-19.375-52.722656-28.101562-85.847656l1.402343-2.808594c2.660157-5.351563 10.363281-5.351563 13.023438 0l9.824219 19.734375c1.0625 2.125 3.101562 3.601562 5.476562 3.9375l21.960938 3.164062c5.953124.859376 8.339843 8.125 4.027343 12.285157zm0 0" fill="#ffbd54"/><path d="m461.015625 233.015625 9.820313 19.730469c1.058593 2.125 3.105468 3.601562 5.472656 3.941406l21.960937 3.164062c5.960938.859376 8.339844 8.121094 4.027344 12.289063l-15.890625 15.355469c-1.710938 1.65625-2.496094 4.039062-2.089844 6.375l3.75 21.6875c1.019532 5.882812-5.210937 10.371094-10.539062 7.59375l-19.644532-10.238282c-2.117187-1.101562-4.644531-1.101562-6.761718 0l-19.644532 10.238282c-5.332031 2.777344-11.5625-1.707032-10.542968-7.59375l3.753906-21.6875c.402344-2.335938-.378906-4.71875-2.09375-6.375l-15.890625-15.355469c-4.3125-4.167969-1.933594-11.429687 4.027344-12.289063l21.964843-3.164062c2.363282-.339844 4.410157-1.816406 5.46875-3.941406l9.824219-19.730469c2.660157-5.355469 10.363281-5.355469 13.027344 0zm0 0" fill="#ffd659"/><path d="m486.398438 287.496094c-1.710938 1.652344-2.484376 4.039062-2.085938 6.375l3.75 21.6875c1.023438 5.886718-5.214844 10.375-10.539062 7.601562l-2.835938-1.488281c-1.386719-38.386719-19.375-52.722656-28.101562-85.847656l1.402343-2.808594c2.660157-5.351563 10.359375-5.351563 13.023438 0l9.824219 19.734375c1.0625 2.125 3.101562 3.601562 5.476562 3.9375l21.960938 3.164062c5.949218.859376 8.335937 8.125 4.023437 12.285157zm0 0" fill="#ffbd54"/><path d="m496.496094 340.5h-21.015625c1.453125-2.835938 2.425781-5.953125 2.816406-9.246094 3.917969.710938 8-.179687 11.339844-2.621094 4.546875-3.320312 6.773437-8.820312 5.820312-14.351562l-3.722656-21.507812 15.773437-15.242188c4.058594-3.925781 5.503907-9.691406 3.769532-15.054688-1.742188-5.390624-6.316406-9.238281-11.941406-10.050781l-20.839844-3v-181.425781c0-15.164062-12.335938-27.5-27.5-27.5h-336.886719c-1.851563-5.136719-6.3125-8.785156-11.769531-9.574219l-21.847656-3.144531-9.761719-19.605469c-2.511719-5.042969-7.578125-8.175781-13.230469-8.175781-5.648438 0-10.71875 3.132812-13.226562 8.171875l-9.761719 19.605469-21.851563 3.148437c-5.625.8125-10.199218 4.660157-11.941406 10.050781-1.730469 5.363282-.285156 11.128907 3.773438 15.054688l15.773437 15.242188-3.722656 21.503906c-.957031 5.535156 1.273437 11.035156 5.816406 14.355468 2.601563 1.898438 5.648437 2.863282 8.722656 2.863282.808594 0 1.617188-.09375 2.417969-.226563v17.980469c0 4.144531 3.359375 7.5 7.5 7.5 4.144531 0 7.5-3.355469 7.5-7.5v-24.949219l9-4.691406 6 3.125v216.765625c0 4.144531 3.359375 7.5 7.5 7.5h345.203125c.871094 1.175781 1.925781 2.234375 3.15625 3.132812 2.597656 1.898438 5.644531 2.863282 8.71875 2.863282 2.335937 0 4.6875-.558594 6.863281-1.691406l19.554688-10.195313 9 4.691406v3.699219c0 6.894531-5.605469 12.5-12.5 12.5h-389.996094c-6.890625 0-12.5-5.605469-12.5-12.5v-168.25c0-4.144531-3.355469-7.5-7.5-7.5-4.140625 0-7.5 3.355469-7.5 7.5v168.25c0 4.5 1.09375 8.746094 3.019531 12.5h-21.015625c-8.546875 0-15.49999975 6.953125-15.49999975 15.5v6c0 20.679688 16.82031275 37.5 37.49999975 37.5h47.578125c-6.582031 7.625-10.582031 17.5625-10.582031 28.429688 0 8.199218 6.648438 14.871093 14.820312 14.871093h70.679688c4.144531 0 7.5-3.359375 7.5-7.5 0-4.144531-3.355469-7.5-7.5-7.5h-70.5c.070312-15.617187 12.691406-28.300781 28.191406-28.300781h75.773438c-.15625 1.378906-.246094 2.773438-.246094 4.179688 0 3.367187 1.289062 6.5625 3.65625 9.03125 2.367188 2.4375 5.546875 3.835937 8.949219 3.925781 41.371093 1.132812 73.640625 5.269531 82.222656 10.554687 3.929687 2.414063 8.769531 6.140625 12.988281 9.46875 3.25 2.5625 7.964844 2.007813 10.53125-1.246094 2.566406-3.25 2.011719-7.964843-1.242187-10.53125-4.789063-3.777343-9.847657-7.660156-14.421875-10.46875-14.878906-9.160156-60.355469-11.894531-87.589844-12.710937.210938-2.296875.796875-4.523437 1.75-6.652344 3.402344-7.640625 11.003906-12.578125 19.367188-12.578125h110.089843c28.875 0 48.214844 6.152344 61 15.339844.1875.15625.386719.300781.59375.4375 13.734375 10.132812 19.710938 23.824219 21.800781 37.019531l-102.285156 19.230469h-4.71875c-8.296875 0-16.582031-1.058594-24.625-3.148438-8.035156-2.089843-15.796875-5.199218-23.0625-9.25-16.773437-9.355468-35.792968-14.300781-54.992187-14.300781h-21.230469c-4.140625 0-7.5 3.355469-7.5 7.5 0 4.140625 3.359375 7.5 7.5 7.5h21.230469c16.648437 0 33.136719 4.289063 47.6875 12.402344 8.382812 4.667969 17.328125 8.257813 26.59375 10.664063 9.273437 2.410156 18.828125 3.632812 28.398437 3.632812h.960938l21.007812 38.585938c1.3125 2.414062 3.839844 3.914062 6.585938 3.914062h138.265625c2.695312 0 5.1875-1.449219 6.519531-3.796875s1.300781-5.226563-.078125-7.546875l-39.066406-65.5c-1.609375-2.699219-4.742188-4.109375-7.828125-3.527344l-4.644532.875c-2.074218-12.519531-6.816406-23.710937-13.984374-33.003906h50.847656c20.679687 0 37.5-16.820312 37.5-37.5v-6c0-8.546875-6.953125-15.5-15.5-15.5zm-445.839844-255.738281-13.195312 6.875c-.015626.011719-.03125.019531-.050782.027343l-5.992187 3.121094 3.660156-21.136718c.824219-4.785157-.769531-9.660157-4.269531-13.046876l-15.429688-14.910156 21.382813-3.082031c4.804687-.691406 8.960937-3.6875 11.117187-8.019531l9.625-19.332032 9.621094 19.332032c2.15625 4.332031 6.3125 7.328125 11.117188 8.019531l21.382812 3.082031-15.429688 14.910156c-3.5 3.382813-5.097656 8.261719-4.269531 13.046876l3.65625 21.140624-8.90625-4.644531c-.101562-.058593-.207031-.109375-.3125-.164062l-10.011719-5.21875c-2.144531-1.117188-4.496093-1.675781-6.851562-1.675781-2.351562 0-4.703125.558593-6.84375 1.675781zm27.84375 24.1875c4.703125 1.859375 9.992188 1.214843 14.140625-1.816407 4.546875-3.320312 6.773437-8.820312 5.820313-14.351562l-1.261719-7.28125h286.800781c4.140625 0 7.5-3.355469 7.5-7.5s-3.359375-7.5-7.5-7.5h-288.460938l14.972657-14.46875c.179687-.171875.34375-.351562.511719-.53125h339.976562c6.890625 0 12.5 5.605469 12.5 12.5v156.539062c-2.527344-1.9375-5.660156-3.039062-9.003906-3.039062-2.113282 0-4.148438.441406-5.996094 1.253906v-144.753906c0-4.144531-3.359375-7.5-7.5-7.5h-24.75c-4.144531 0-7.5 3.355469-7.5 7.5s3.355469 7.5 7.5 7.5h17.25v159.78125l-1.992188 4-21.847656 3.144531c-5.625.8125-10.203125 4.664063-11.941406 10.050781-1.734375 5.363282-.289062 11.128907 3.769531 15.054688l15.773438 15.242188-3.066407 17.726562h-335.695312zm375.996094 195.636719c-2.351563 0-4.703125.558593-6.847656 1.675781l-19.234376 10.023437 3.660157-21.136718c.824219-4.785157-.769531-9.660157-4.269531-13.046876l-15.429688-14.910156 21.382812-3.082031c4.804688-.691406 8.957032-3.6875 11.113282-8.019531l9.625-19.332032 9.625 19.332032c.042968.089844.101562.167968.144531.257812.160156.324219.339844.640625.542969.941406 2.285156 3.675782 6.082031 6.195313 10.425781 6.820313l21.382813 3.082031-15.429688 14.910156c-3.5 3.382813-5.097656 8.261719-4.265625 13.046876l3.65625 21.140624-5.984375-3.121093c-.023438-.011719-.046875-.023438-.070312-.035157l-13.183594-6.871093c-2.140625-1.117188-4.488282-1.675781-6.84375-1.675781zm15.027344 192.414062h-120.601563l-16.078125-29.53125 107.0625-20.128906zm27.472656-135c0 12.40625-10.09375 22.5-22.5 22.5h-66.871094c-16.660156-11.3125-39.492188-17.03125-68.105469-17.03125h-110.089843c-12.585938 0-24.15625 6.554688-30.699219 17.03125h-161.226563c-12.40625 0-22.5-10.09375-22.5-22.5v-6c0-.273438.222656-.5.5-.5h480.992188c.277344 0 .5.226562.5.5zm0 0"/><path d="m196 124.957031h-80c-4.140625 0-7.5 3.355469-7.5 7.5s3.359375 7.5 7.5 7.5h80c4.144531 0 7.5-3.355469 7.5-7.5s-3.355469-7.5-7.5-7.5zm0 0"/><path d="m196 153.992188h-80c-4.140625 0-7.5 3.355468-7.5 7.5 0 4.144531 3.359375 7.5 7.5 7.5h80c4.144531 0 7.5-3.355469 7.5-7.5 0-4.144532-3.355469-7.5-7.5-7.5zm0 0"/><path d="m196 183.027344h-80c-4.140625 0-7.5 3.355468-7.5 7.5 0 4.144531 3.359375 7.5 7.5 7.5h80c4.144531 0 7.5-3.355469 7.5-7.5 0-4.144532-3.355469-7.5-7.5-7.5zm0 0"/><path d="m196 212.0625h-80c-4.140625 0-7.5 3.359375-7.5 7.5 0 4.144531 3.359375 7.5 7.5 7.5h80c4.144531 0 7.5-3.355469 7.5-7.5 0-4.140625-3.355469-7.5-7.5-7.5zm0 0"/><path d="m196 241.097656h-80c-4.140625 0-7.5 3.355469-7.5 7.5 0 4.144532 3.359375 7.5 7.5 7.5h80c4.144531 0 7.5-3.355468 7.5-7.5 0-4.144531-3.355469-7.5-7.5-7.5zm0 0"/><path d="m394.132812 203.851562c2.390626-3.628906 5.367188-8.144531 5.367188-13.851562s-2.976562-10.222656-5.367188-13.855469c-1.15625-1.753906-2.351562-3.570312-2.667968-4.757812-.351563-1.324219-.226563-3.582031-.105469-5.769531.238281-4.269532.535156-9.589844-2.238281-14.382813-2.804688-4.84375-7.59375-7.25-11.441406-9.183594-1.925782-.96875-3.914063-1.96875-4.839844-2.894531-.921875-.921875-1.921875-2.914062-2.890625-4.839844-1.933594-3.847656-4.339844-8.636718-9.1875-11.441406-4.789063-2.769531-10.109375-2.472656-14.382813-2.234375-2.183594.121094-4.441406.246094-5.765625-.109375-1.1875-.316406-3.003906-1.511719-4.757812-2.667969-3.632813-2.390625-8.148438-5.363281-13.855469-5.363281-5.703125 0-10.222656 2.972656-13.851562 5.363281-1.757813 1.15625-3.570313 2.351563-4.757813 2.667969-1.328125.355469-3.585937.230469-5.769531.109375-4.273438-.242187-9.59375-.535156-14.382813 2.234375-4.84375 2.804688-7.253906 7.59375-9.1875 11.441406-.964843 1.925782-1.964843 3.914063-2.890625 4.839844-.921875.925781-2.914062 1.925781-4.839844 2.890625-3.847656 1.9375-8.640624 4.34375-11.441406 9.1875-2.769531 4.792969-2.476562 10.109375-2.234375 14.382813.121094 2.1875.246094 4.445312-.109375 5.769531-.316406 1.1875-1.511718 3.003906-2.667968 4.757812-2.390626 3.632813-5.363282 8.148438-5.363282 13.855469s2.972656 10.222656 5.363282 13.855469c1.15625 1.753906 2.351562 3.570312 2.667968 4.757812.355469 1.324219.230469 3.582031.109375 5.769531-.238281 4.269532-.535156 9.589844 2.234375 14.382813 2.804688 4.84375 7.59375 7.25 11.441406 9.183594 1.925782.96875 3.914063 1.96875 4.839844 2.894531.925782.921875 1.925782 2.914062 2.890625 4.839844 1.9375 3.847656 4.34375 8.636718 9.1875 11.441406 4.792969 2.773438 10.113281 2.476562 14.382813 2.234375 2.183594-.117187 4.441406-.246094 5.769531.109375 1.1875.316406 3 1.511719 4.757813 2.667969 3.628906 2.390625 8.148437 5.363281 13.851562 5.363281 5.707031 0 10.226562-2.972656 13.855469-5.363281 1.753906-1.15625 3.570312-2.351563 4.757812-2.667969 1.324219-.355469 3.582031-.230469 5.765625-.109375 4.273438.238281 9.59375.535156 14.382813-2.234375 4.847656-2.804688 7.253906-7.59375 9.1875-11.441406.964843-1.925782 1.964843-3.914063 2.890625-4.839844.925781-.925781 2.914062-1.925781 4.839844-2.890625 3.847656-1.9375 8.640624-4.34375 11.441406-9.1875 2.773437-4.792969 2.476562-10.109375 2.238281-14.382813-.121094-2.1875-.246094-4.445312.105469-5.769531.316406-1.1875 1.511718-3.003906 2.667968-4.761719zm-12.527343-8.246093c-1.726563 2.625-3.6875 5.597656-4.632813 9.132812-.972656 3.644531-.769531 7.273438-.589844 10.476563.117188 2.164062.285157 5.125-.246093 6.039062-.558594.964844-3.238281 2.3125-5.191407 3.292969-2.851562 1.433594-6.078124 3.054687-8.710937 5.6875-2.636719 2.636719-4.257813 5.863281-5.6875 8.710937-.984375 1.957032-2.328125 4.636719-3.296875 5.195313-.914062.527344-3.875.363281-6.035156.242187-3.203125-.175781-6.835938-.378906-10.476563.59375-3.53125.945313-6.507812 2.902344-9.132812 4.632813-1.957031 1.289063-4.394531 2.894531-5.605469 2.894531s-3.644531-1.605468-5.605469-2.894531c-2.621093-1.730469-5.597656-3.6875-9.132812-4.632813-2.160157-.578124-4.320313-.742187-6.386719-.742187-1.414062 0-2.789062.078125-4.089844.148437-2.160156.121094-5.121094.285157-6.035156-.242187-.96875-.558594-2.3125-3.238281-3.296875-5.195313-1.429687-2.847656-3.050781-6.074218-5.6875-8.710937-2.632813-2.632813-5.859375-4.253906-8.710937-5.6875-1.953126-.980469-4.632813-2.328125-5.191407-3.292969-.53125-.914062-.363281-3.875-.246093-6.039062.179687-3.203125.382812-6.832032-.589844-10.476563-.945313-3.53125-2.902344-6.507812-4.632813-9.132812-1.289062-1.957031-2.894531-4.394531-2.894531-5.605469 0-1.207031 1.605469-3.644531 2.894531-5.605469 1.726563-2.621093 3.6875-5.597656 4.632813-9.132812.972656-3.640625.769531-7.269531.589844-10.476563-.117188-2.160156-.285157-5.121094.246093-6.035156.558594-.96875 3.238281-2.3125 5.191407-3.296875 2.851562-1.429687 6.078124-3.050781 8.714843-5.6875 2.632813-2.632813 4.253907-5.863281 5.683594-8.710937.984375-1.953126 2.328125-4.632813 3.296875-5.191407.914062-.53125 3.875-.367187 6.035156-.246093 3.207032.179687 6.835938.382812 10.476563-.59375 3.53125-.941407 6.507812-2.902344 9.132812-4.628907 1.957031-1.289062 4.394531-2.894531 5.605469-2.894531s3.648438 1.605469 5.605469 2.894531c2.625 1.726563 5.597656 3.6875 9.132812 4.632813 3.640625.96875 7.269531.769531 10.472657.589844 2.160156-.121094 5.125-.285157 6.039062.246093.964844.558594 2.3125 3.238281 3.296875 5.191407 1.429687 2.847656 3.050781 6.078124 5.6875 8.710937 2.632813 2.636719 5.859375 4.257813 8.707031 5.6875 1.957032.984375 4.636719 2.328125 5.195313 3.296875.527343.914062.363281 3.875.242187 6.035156-.175781 3.203125-.378906 6.835938.59375 10.476563.945313 3.535156 2.902344 6.511719 4.632813 9.132812 1.289062 1.960938 2.894531 4.398438 2.894531 5.605469 0 1.210938-1.605469 3.644531-2.894531 5.605469zm0 0"/><path d="m307.136719 167.636719c0 4.140625-3.359375 7.5-7.5 7.5s-7.5-3.359375-7.5-7.5 3.359375-7.5 7.5-7.5 7.5 3.359375 7.5 7.5zm0 0"/><path d="m351.863281 212.363281c0 4.140625-3.359375 7.5-7.5 7.5-4.144531 0-7.5-3.359375-7.5-7.5s3.355469-7.5 7.5-7.5c4.140625 0 7.5 3.359375 7.5 7.5zm0 0"/><path d="m339.40625 161.984375-45.421875 45.421875c-2.929687 2.929688-2.929687 7.679688 0 10.609375 1.464844 1.460937 3.386719 2.195313 5.304687 2.195313 1.917969 0 3.839844-.734376 5.304688-2.195313l45.421875-45.421875c2.929687-2.933594 2.929687-7.679688 0-10.609375-2.933594-2.925781-7.679687-2.925781-10.609375 0zm0 0"/></svg>